# xmcd
#
# Track frame offsets:
#	150
#	9120
#	17772
#	36167
#	40502
#	55275
#	68192
#	89585
#	107320
#	123907
#	132947
#	148812
#	164110
#	169342
#	181902
#	196910
#	213412
#	224050
#	231495
#	241020
#	259442
#
# Disc length: 3594 seconds
#
# Revision: 1
# Processed by: cddbd v1.5.1PL0 Copyright (c) Steve Scherf et al.
# Submitted via: CDex 1.50Beta5
#
DISCID=330e0815
DTITLE=グリー - 合唱名曲コレクション28 雪明かりの路
DYEAR=1900
DGENRE=Classical
TTITLE0=春を待つ
TTITLE1=梅ちゃん
TTITLE2=月夜を歩く
TTITLE3=白い障子
TTITLE4=夜まわり
TTITLE5=雪夜
TTITLE6=作品第壹
TTITLE7=作品第肆
TTITLE8=作品第拾陸
TTITLE9=作品第拾捌
TTITLE10=作品第貳拾壹
TTITLE11=米子
TTITLE12=早春の風
TTITLE13=閑寂
TTITLE14=骨
TTITLE15=また来ん春
TTITLE16=冬の明け方
TTITLE17=冬の日の記憶
TTITLE18=冬の長門峡
TTITLE19=更くる夜
TTITLE20=南無ダダ
EXTD=
EXTT0=
EXTT1=
EXTT2=
EXTT3=
EXTT4=
EXTT5=
EXTT6=
EXTT7=
EXTT8=
EXTT9=
EXTT10=
EXTT11=
EXTT12=
EXTT13=
EXTT14=
EXTT15=
EXTT16=
EXTT17=
EXTT18=
EXTT19=
EXTT20=
PLAYORDER=
